<svg width="206" height="31" viewBox="0 0 206 31" fill="none" xmlns="http://www.w3.org/2000/svg">
<path opacity="0.95" d="M8.336 5.76V10.08H19.6V5.76H8.336ZM4.624 2.112H23.536V13.728H4.624V2.112ZM0.24 16.416H12.464V30.688H8.624V20.064H3.856V30.88H0.24V16.416ZM15.184 16.416H27.856V30.72H23.984V20.064H18.864V30.88H15.184V16.416ZM1.84 25.6H10.224V29.28H1.84V25.6ZM16.944 25.6H25.904V29.28H16.944V25.6ZM42.96 21.344H60.784V24.576H42.96V21.344ZM52.976 17.312H56.592V30.912H52.976V17.312ZM50.096 0.768L54.352 1.504C53.424 3.136 52.4 4.768 51.664 5.856L48.592 5.056C49.168 3.776 49.808 2.048 50.096 0.768ZM50.352 5.536H53.584V10.944C53.584 14.688 52.56 19.232 46.256 21.824C45.712 21.216 44.528 20.192 43.824 19.712C49.552 17.44 50.352 13.728 50.352 10.848V5.536ZM34.352 9.248H43.472V12.512H34.352V9.248ZM38.096 0.863998H41.424V11.2H38.096V0.863998ZM34.544 16.192H42.096V30.912H38.704V19.424H34.544V16.192ZM32.752 1.664H36.048V13.632C36.048 18.656 35.696 25.984 33.904 30.976C33.168 30.592 31.632 30.08 30.704 29.824C32.496 25.184 32.752 18.112 32.752 13.632V1.664ZM47.44 11.552V13.76H56.464V11.552H47.44ZM47.44 6.688V8.864H56.464V6.688H47.44ZM44.048 3.808H59.984V16.608H44.048V3.808ZM63.792 9.44H92.272V13.408H63.792V9.44ZM80.208 11.04C82.128 18.368 86.192 24.448 92.976 27.136C92.016 28 90.736 29.664 90.096 30.784C82.768 27.36 78.768 20.736 76.336 11.936L80.208 11.04ZM75.792 0.831999H80.016C79.856 10.592 79.792 24.16 66.064 30.784C65.456 29.728 64.272 28.352 63.152 27.52C76.272 21.664 75.696 9.504 75.792 0.831999ZM104.592 3.968H125.008V7.456H104.592V3.968ZM108.784 12.832V16H120.464V12.832H108.784ZM105.296 9.696H124.144V19.136H105.296V9.696ZM108.304 19.456C111.152 24.064 117.2 26.656 125.488 27.424C124.688 28.256 123.728 29.792 123.248 30.848C114.576 29.664 108.656 26.432 105.168 20.416L108.304 19.456ZM112.688 1.024H116.464V15.648C116.464 22.176 114.832 28.128 105.648 30.88C105.2 30.016 104.08 28.48 103.248 27.68C111.856 25.76 112.688 20.864 112.688 15.616V1.024ZM102.16 0.735998L105.744 1.888C103.568 7.328 100.048 13.056 96.4 16.672C96.08 15.776 95.056 13.664 94.416 12.736C97.456 9.856 100.432 5.312 102.16 0.735998ZM99.056 9.664L102.672 6.016L102.704 6.048V30.944H99.056V9.664ZM151.155 22.08H154.963V25.984C154.963 26.88 155.219 27.008 156.755 27.008C157.395 27.008 160.243 27.008 161.139 27.008C162.291 27.008 162.515 26.688 162.675 24.384C163.443 24.96 165.043 25.504 166.067 25.728C165.619 29.472 164.563 30.4 161.459 30.4C160.595 30.4 157.139 30.4 156.307 30.4C152.115 30.4 151.155 29.344 151.155 26.048V22.08ZM155.411 21.824L157.939 19.84C159.699 20.864 161.811 22.496 162.835 23.744L160.147 25.952C159.219 24.704 157.171 22.976 155.411 21.824ZM164.627 23.232L167.763 21.6C169.811 23.52 172.019 26.144 172.915 28.128L169.523 29.888C168.723 28 166.643 25.216 164.627 23.232ZM146.739 21.824L150.131 23.232C149.267 25.6 148.019 28.288 146.355 30.048L142.995 28.064C144.595 26.496 145.971 24.064 146.739 21.824ZM143.315 5.408H152.147V8.32H143.315V5.408ZM152.499 1.76H160.339V4.224H152.499V1.76ZM152.019 8.224H161.267V10.752H152.019V8.224ZM146.483 0.863998H149.715V20.768H146.483V0.863998ZM146.579 7.392L148.819 8.032C148.019 11.872 146.579 16 144.787 18.304C144.275 17.568 143.251 16.512 142.579 15.936C144.275 14.112 145.811 10.592 146.579 7.392ZM156.019 9.056L158.195 9.824C156.851 13.056 154.515 16.416 152.083 18.208C151.635 17.536 150.771 16.576 150.131 16.064C152.467 14.624 154.803 11.744 156.019 9.056ZM162.451 5.408H172.403V8.32H162.451V5.408ZM165.395 0.863998H168.627V20.768H165.395V0.863998ZM165.459 7.168L167.859 7.808C166.771 12.224 164.851 16.672 162.323 19.104C161.811 18.336 160.819 17.248 160.115 16.672C162.483 14.72 164.435 10.848 165.459 7.168ZM149.683 9.408C150.259 9.824 152.275 11.584 152.755 12.064L150.899 14.208C150.323 13.28 148.755 11.392 148.019 10.592L149.683 9.408ZM155.731 9.152H158.899V17.344C158.899 18.656 158.707 19.328 157.843 19.744C157.011 20.16 155.923 20.192 154.483 20.192C154.387 19.392 154.003 18.336 153.683 17.6C154.387 17.632 155.155 17.632 155.379 17.632C155.635 17.6 155.731 17.536 155.731 17.248V9.152ZM153.043 6.592L154.835 4.704C156.627 5.376 158.963 6.592 160.147 7.52L158.259 9.632C157.171 8.672 154.867 7.392 153.043 6.592ZM168.787 7.168C169.651 10.656 171.315 14.528 173.235 16.544C172.531 17.088 171.507 18.144 170.995 18.944C169.043 16.448 167.475 11.936 166.611 7.776L168.787 7.168ZM159.475 1.76H160.211L160.787 1.6L162.707 3.04C161.299 4.736 159.315 6.528 157.555 7.712C157.171 7.136 156.371 6.272 155.891 5.856C157.203 4.928 158.771 3.392 159.475 2.272V1.76ZM160.435 8.224H160.883L161.331 8.064L163.315 8.672C162.899 10.4 162.387 12.384 161.843 13.664L159.539 12.832C159.891 11.712 160.243 10.016 160.435 8.576V8.224ZM183.155 22.08H186.963V25.984C186.963 26.88 187.219 27.008 188.755 27.008C189.395 27.008 192.243 27.008 193.139 27.008C194.291 27.008 194.515 26.688 194.675 24.384C195.443 24.96 197.043 25.504 198.067 25.728C197.619 29.472 196.563 30.4 193.459 30.4C192.595 30.4 189.139 30.4 188.307 30.4C184.115 30.4 183.155 29.344 183.155 26.048V22.08ZM187.411 21.824L189.939 19.84C191.699 20.864 193.811 22.496 194.835 23.744L192.147 25.952C191.219 24.704 189.171 22.976 187.411 21.824ZM196.627 23.232L199.763 21.6C201.811 23.52 204.019 26.144 204.915 28.128L201.523 29.888C200.723 28 198.643 25.216 196.627 23.232ZM178.739 21.824L182.131 23.232C181.267 25.6 180.019 28.288 178.355 30.048L174.995 28.064C176.595 26.496 177.971 24.064 178.739 21.824ZM175.315 5.408H184.147V8.32H175.315V5.408ZM184.499 1.76H192.339V4.224H184.499V1.76ZM184.019 8.224H193.267V10.752H184.019V8.224ZM178.483 0.863998H181.715V20.768H178.483V0.863998ZM178.579 7.392L180.819 8.032C180.019 11.872 178.579 16 176.787 18.304C176.275 17.568 175.251 16.512 174.579 15.936C176.275 14.112 177.811 10.592 178.579 7.392ZM188.019 9.056L190.195 9.824C188.851 13.056 186.515 16.416 184.083 18.208C183.635 17.536 182.771 16.576 182.131 16.064C184.467 14.624 186.803 11.744 188.019 9.056ZM194.451 5.408H204.403V8.32H194.451V5.408ZM197.395 0.863998H200.627V20.768H197.395V0.863998ZM197.459 7.168L199.859 7.808C198.771 12.224 196.851 16.672 194.323 19.104C193.811 18.336 192.819 17.248 192.115 16.672C194.483 14.72 196.435 10.848 197.459 7.168ZM181.683 9.408C182.259 9.824 184.275 11.584 184.755 12.064L182.899 14.208C182.323 13.28 180.755 11.392 180.019 10.592L181.683 9.408ZM187.731 9.152H190.899V17.344C190.899 18.656 190.707 19.328 189.843 19.744C189.011 20.16 187.923 20.192 186.483 20.192C186.387 19.392 186.003 18.336 185.683 17.6C186.387 17.632 187.155 17.632 187.379 17.632C187.635 17.6 187.731 17.536 187.731 17.248V9.152ZM185.043 6.592L186.835 4.704C188.627 5.376 190.963 6.592 192.147 7.52L190.259 9.632C189.171 8.672 186.867 7.392 185.043 6.592ZM200.787 7.168C201.651 10.656 203.315 14.528 205.235 16.544C204.531 17.088 203.507 18.144 202.995 18.944C201.043 16.448 199.475 11.936 198.611 7.776L200.787 7.168ZM191.475 1.76H192.211L192.787 1.6L194.707 3.04C193.299 4.736 191.315 6.528 189.555 7.712C189.171 7.136 188.371 6.272 187.891 5.856C189.203 4.928 190.771 3.392 191.475 2.272V1.76ZM192.435 8.224H192.883L193.331 8.064L195.315 8.672C194.899 10.4 194.387 12.384 193.843 13.664L191.539 12.832C191.891 11.712 192.243 10.016 192.435 8.576V8.224Z" fill="white"/>
</svg>
